<?xml version="1.0" encoding="utf-8"?>
<!-- Generator: Adobe Illustrator 25.0.0, SVG Export Plug-In . SVG Version: 6.00 Build 0)  -->
<svg version="1.1" id="Layer_1" xmlns="http://www.w3.org/2000/svg" xmlns:xlink="http://www.w3.org/1999/xlink" x="0px" y="0px"
	 viewBox="0 0 604.2 604.2" style="enable-background:new 0 0 604.2 604.2;" xml:space="preserve">
<style type="text/css">
	.st0{fill:#FFFFFF;}
</style>
<g id="Layer_2_1_">
	<g id="Layer_1-2">
		<path class="st0" d="M56.8,312c-3.9,0-7,3.1-7,7c0,0.1,0,0.1,0,0.2c-0.1,4,3.1,7.4,7.1,7.4c0,0,0,0,0,0c4-0.2,7.2-3.6,7-7.6
			C63.7,315.2,60.6,312.1,56.8,312z M93.3,312c-4-0.2-7.5,2.9-7.7,6.9c-0.2,4,2.9,7.5,6.9,7.7c4,0.2,7.5-2.9,7.7-6.9
			c0-0.1,0-0.2,0-0.3c0.2-3.9-2.7-7.2-6.5-7.4C93.5,312,93.4,312,93.3,312z M93.3,312c-4-0.2-7.5,2.9-7.7,6.9
			c-0.2,4,2.9,7.5,6.9,7.7c4,0.2,7.5-2.9,7.7-6.9c0-0.1,0-0.2,0-0.3c0.2-3.9-2.7-7.2-6.5-7.4C93.5,312,93.4,312,93.3,312z M56.8,312
			c-3.9,0-7,3.1-7,7c0,0.1,0,0.1,0,0.2c-0.1,4,3.1,7.4,7.1,7.4c0,0,0,0,0,0c4-0.2,7.2-3.6,7-7.6C63.7,315.2,60.6,312.1,56.8,312z
			 M126.8,299.6c-1.1-25.9-23.4-53.5-56.2-51.2c-21.7,1.6-47.8,21.5-47.8,54.2c0,1.6,0.1,3.2,0.2,4.9c1.8,23.9,23.6,49.5,51.8,48.3
			C102.4,357.1,128.2,331,126.8,299.6L126.8,299.6z M56.8,334.8c-8.6,0-15.5-7-15.4-15.6c0-8.6,7-15.5,15.6-15.4l0,0
			c8.2,0,14.8,6.9,14.8,15.6C71.8,327.8,65.2,334.7,56.8,334.8C56.8,334.9,56.8,334.9,56.8,334.8L56.8,334.8z M58.2,290.7
			c-0.1-3.5,2.7-6.5,6.3-6.6s6.5,2.7,6.6,6.3c0,0.2,0,0.3,0,0.5c0,3.6-2.9,6.5-6.5,6.6C60.9,297.4,58.1,294.4,58.2,290.7L58.2,290.7
			z M93.2,334.8c-8.3-0.2-15-7.1-14.9-15.4c0-8.7,6.7-15.6,15-15.6s14.8,6.8,14.8,15.5S101.4,334.9,93.2,334.8L93.2,334.8z
			 M112.4,309.4c-1.1-1.7-2.4-3.3-3.7-4.8c-1.3-1.4-3.4-2.5-4.2-4.1s-0.5-3.9-0.9-5.9c-2.6-12.9-13.6-22.4-26-22.5
			c-13-0.1-23.9,8.6-27,21.7c-0.3,1.2-0.6,2.3-0.9,3.6c-1.6-0.1-3-0.2-4.4-0.3c-3.5,0-6.4,2.8-6.5,6.4c0,0.9,0.2,1.8,0.5,2.6
			c0.3,0.8,0.2,1.6-0.1,2.4c-1.2,2.6-2.2,5.3-3.4,8.1c-0.3-0.1-0.6-0.3-0.8-0.5c-4.5-3.9-6.5-9.9-5.1-15.7c1-6,5.4-10.9,11.3-12.4
			c0.9-0.2,1.6-0.8,1.8-1.7c6.1-15.6,21.1-25.2,37.3-23.6c15.8,1.5,29.1,13.7,32.3,29.9C113.8,298.1,113.7,303.9,112.4,309.4
			L112.4,309.4z M93.3,312c-4-0.2-7.5,2.9-7.7,6.9c-0.2,4,2.9,7.5,6.9,7.7c4,0.2,7.5-2.9,7.7-6.9c0-0.1,0-0.2,0-0.3
			c0.2-3.9-2.7-7.2-6.5-7.4C93.5,312,93.4,312,93.3,312z M56.8,312c-3.9,0-7,3.1-7,7c0,0.1,0,0.1,0,0.2c-0.1,4,3.1,7.4,7.1,7.4
			c0,0,0,0,0,0c4-0.2,7.2-3.6,7-7.6C63.7,315.2,60.6,312.1,56.8,312z M56.8,312c-3.9,0-7,3.1-7,7c0,0.1,0,0.1,0,0.2
			c-0.1,4,3.1,7.4,7.1,7.4c0,0,0,0,0,0c4-0.2,7.2-3.6,7-7.6C63.7,315.2,60.6,312.1,56.8,312z M56.8,312c-3.9,0-7,3.1-7,7
			c0,0.1,0,0.1,0,0.2c-0.1,4,3.1,7.4,7.1,7.4c0,0,0,0,0,0c4-0.2,7.2-3.6,7-7.6C63.7,315.2,60.6,312.1,56.8,312z"/>
		<path class="st0" d="M237.4,253.3c0.3,1.2,0.1,2.4-0.7,3.4c-20.9,31.5-42,63-63,94.6c-0.9,1.4-2.4,2.2-4.1,2.1
			c-6.2-0.1-12.4,0-19.2,0c-0.9-6.5-1.7-12.8-2.4-18.8c-1.3-10.5-2.8-21.2-4.1-31.8c-1.2-9.2-2.4-18.3-3.6-27.4
			c-0.8-5.8-1.6-11.5-2.4-17.1c-0.3-1.2-0.7-2.6-0.3-3.7s1.6-2.8,2.4-2.8c8-0.3,15.9-0.1,24.1-0.1c2.1,21.2,4.2,41.9,6.3,63.7
			c3.6-5.5,6.6-10.3,9.6-15l29.6-46.6c0.8-1.5,2.4-2.4,4.1-2.2c6.7,0.1,13.4,0,20.2,0.1C235.3,251.7,236.5,252.3,237.4,253.3z"/>
		<path class="st0" d="M318.2,256.6c-1.6,5.9-3.3,11.9-4.9,17.9c-16.5,0-32.5,0.1-48.5-0.1c-2.4,0-3.4,0.5-4,3
			c-0.9,4.2-2.2,8.3-3.4,12.9h40c3.8,0.1,4.9,1.5,4,5c-1.5,5.1-3,10.3-4.2,15.4c-0.4,2-1.3,2.4-3.2,2.4c-13-0.1-26.1,0.1-39.1-0.1
			c-3.2,0-4.2,1-4.7,3.8c-0.9,4.3-2.2,8.6-3.4,13.3h46.5c5,0,5.7,0.5,4.4,5.4c-1.5,5.7-3,11.3-4.6,17.3h-72.4
			c-4.1,0-4.9-1.1-3.8-5.1l24.9-93.3c0.5-2.2,1.6-2.9,3.8-2.9h68.9C318.4,251.5,319.3,252.8,318.2,256.6z"/>
		<path class="st0" d="M404.5,272.8c-3.7-13.2-16.2-20-31-20.8c-12.4-0.7-24.8-0.4-37.3-0.4c-7.8,0-7.8,0-9.8,7.2
			c-8,29.8-16.1,59.7-24.2,89.4c-0.8,2.9,0.4,4.4,3.4,4.4h18.6c1.8,0,2.6-0.5,3-2.2c0.9-4.1,2.1-8,3.2-12.1c1.5-5.5,3-11.2,4.6-16.6
			c4,0,7.4,0.1,10.8,0c1.9-0.1,2.8,0.7,3.6,2.4c4.1,8.8,8.4,17.5,12.6,26.2c0.8,1.7,1.7,2.5,3.7,2.5c7-0.1,13.8,0,20.8,0
			c3.5,0,4.6-1.7,3-5c-4.6-9.5-9.5-19.1-14.1-28.5c3.6-1.5,7.1-2.6,10.5-4.4C402.9,306.8,409.2,290.1,404.5,272.8z M374,294.7
			c-4.3,2.8-9.5,4.2-14.6,4h-18c2-7.4,3.8-14.2,5.5-21.2c0.5-2,1.3-3,3.5-2.9c6.3,0.4,12.6,0.4,18.8,0.7c5.3,0.3,8.8,3,9.8,7
			C380.3,287,378.3,292.1,374,294.7z"/>
		<path class="st0" d="M450.4,327.6c2.6-2.6,2.5-6.6-0.7-8.4c-4.2-2.5-8.7-4.5-13-6.7c-5.4-2.8-11.1-5.3-15.8-8.8
			c-12.6-9.6-11.3-26.5-4.1-37c6.3-9.4,15.7-14.1,26.5-15.8c12-2,23.7-0.9,34.5,5c4.9,2.6,9.1,6.5,13.4,9.5l-17.9,17.9
			c-2.2-1.7-4.9-4-7.8-5.9c-6.1-4.1-12.8-5.7-20-3.8c-1.8,0.5-3.5,1.4-4.9,2.6c-3.5,3.2-3.3,6.9,0.8,9.5c2.6,1.5,5.3,2.9,8,4.1
			c5.1,2.5,10.5,4.7,15.5,7.5c17.5,9.8,16.3,29.4,8.2,41c-6.9,9.9-17,14.5-28.5,15.7c-12.5,1.3-24.9,0.1-36.4-6.1
			c-6.1-3.3-11.5-7.5-15.4-13.7c6.3-5.4,12.5-10.7,18.8-15.9c5.1,5.4,10.7,10.3,18,12.3c5,1.6,10.4,1.7,15.5,0.3
			C447.2,330.1,449,329,450.4,327.6z"/>
		<path class="st0" d="M523.3,279.1c-1.1,3.6-1.8,7.2-2.9,11.3c13.4,0,26.3,0,39-0.1c5.1,0,5.9,1,4.6,5.9c-1.3,4.6-2.8,9.2-3.8,13.8
			c-0.5,2.2-1.6,2.9-3.8,2.9c-13-0.1-26.1,0-39.1-0.1c-2.8,0-3.7,0.9-4.2,3.3c-1,4.5-2.2,8.8-3.6,13.8h47.3c4.1,0,4.8,0.9,3.7,5
			c-1.6,5.8-3.2,11.7-4.7,17.8h-72.6c-4,0-4.7-1.1-3.7-5l24.9-93.3c0.7-2.4,1.7-3,4.1-3h68.9c3.7,0,4.7,1.4,3.8,4.9
			c-1.6,6.1-3.3,12.1-5,18.2h-46.9C523.5,274.7,525,273.6,523.3,279.1z"/>
	</g>
</g>
</svg>
