<?xml version="1.0" encoding="utf-8"?>
<!-- Generator: Adobe Illustrator 25.0.0, SVG Export Plug-In . SVG Version: 6.00 Build 0)  -->
<svg version="1.1" id="Layer_1" xmlns="http://www.w3.org/2000/svg" xmlns:xlink="http://www.w3.org/1999/xlink" x="0px" y="0px"
	 viewBox="0 0 1366 768" style="enable-background:new 0 0 1366 768;" xml:space="preserve">
<style type="text/css">
	.st0{fill:#FFFFFF;}
</style>
<g>
	<path class="st0" d="M425.3,290c255.4,0,510.8,0,766.3,0c3.1,0.5,6.3,0.9,9.4,1.4c49.1,8.2,83.9,54.1,77.7,103.3
		c-4.4,34.8-23.1,59.8-54.7,75c-14,6.7-28.9,8.5-44.3,8.5c-134.9-0.3-269.9-0.5-404.8-0.5c-167.5-0.1-335,0-502.5,0
		c-0.9,0-1.8,0-3.4,0c1.2-0.7,1.8-1.1,2.4-1.5c19.1-11.9,38.4-23.4,57.2-35.9c25.1-16.6,49.2-34.8,70.2-56.6
		c9.9-10.3,18.7-21.4,25.1-34.2c8.7-17.7,10.4-35.8,3.4-54.4C426.5,293.4,425.9,291.7,425.3,290z M510,462.3
		c42.1,1.8,81.2-36.4,79.1-82.2c-1.7-37.8-35.6-78.3-85.3-74.9c-34.6,2.4-76.6,34.3-72.4,86.4C434.2,426.6,467.2,463.9,510,462.3z
		 M787.8,422.1c6.6-24.6,13.3-49,19.8-73.4c0.6-2.3-0.3-3.4-2.7-3.4c-5,0-10.1,0.1-15.1-0.1c-2.2-0.1-3.6,0.7-4.9,2.3
		c-6.5,7.5-13,14.9-19.5,22.3c-1.5,1.7-3,3.3-4.6,5.1c-0.3-0.5-0.5-0.7-0.5-0.9c-3-8.8-6.1-17.6-9-26.5c-0.5-1.6-1.2-2.3-3-2.3
		c-5,0.1-9.9,0.1-14.9,0c-1.7,0-2.3,0.5-2.7,2.1c-6.4,23.8-12.8,47.6-19.2,71.4c-0.6,2.3,0.2,3.4,2.5,3.4c4.7,0,9.4,0,14.1,0
		c1.5,0,2-0.4,2.4-1.9c2.8-10.7,5.7-21.4,8.6-32.1c0.9-3.3,1.8-6.6,2.9-10.5c3.4,9.1,6.7,17.5,9.9,25.9c0.9,2.2,2.1,2.5,3.8,0.7
		c3-3.2,5.9-6.4,8.9-9.7c5-5.4,9.9-10.7,15.4-16.7c-0.9,3.3-1.6,6-2.3,8.6c-2.8,10.7-5.7,21.4-8.5,32.1c-0.6,2.3,0.2,3.3,2.5,3.4
		C776.9,422.2,782.3,422.1,787.8,422.1z M1073.6,396.7c2.7-1.1,5.4-2,8-3.3c12.8-6.2,17.6-18.9,14-32c-2.8-10-12.3-15.2-23.5-15.8
		c-9.4-0.5-18.8-0.3-28.3-0.3c-5.9,0-5.9,0-7.4,5.5c-6.1,22.6-12.2,45.3-18.4,67.9c-0.6,2.2,0.3,3.3,2.6,3.3c4.7,0,9.4,0,14.1,0
		c1.4,0,2-0.4,2.3-1.7c0.7-3.1,1.6-6.1,2.4-9.2c1.1-4.2,2.3-8.5,3.5-12.6c3,0,5.6,0.1,8.2,0c1.4-0.1,2.1,0.5,2.7,1.8
		c3.1,6.7,6.4,13.3,9.6,19.9c0.6,1.3,1.3,1.9,2.8,1.9c5.3-0.1,10.5,0,15.8,0c2.7,0,3.5-1.3,2.3-3.8
		C1080.8,411.1,1077.1,403.8,1073.6,396.7z M849.9,344.1c-11.7-0.4-21.9,3.5-30.5,11.1c-10.8,9.5-16.3,21.5-15.6,36.1
		c0.5,10.8,4.9,19.6,13.8,25.9c8.1,5.7,17.2,7.1,27,6c10.1-1.1,18.8-5.2,26.1-12.1c10.9-10.3,15.7-23.1,14.1-38
		c-0.9-7.9-4.4-14.8-10.3-20.1C867.6,346.6,859.2,343.8,849.9,344.1z M1183.6,374.8c0.8-3.1,1.4-5.9,2.2-8.6
		c1.3-4.2,0.1-3.4,4.5-3.5c11.8,0,23.7,0,35.6,0c1.3-4.6,2.6-9.2,3.8-13.8c0.7-2.6-0.1-3.7-2.9-3.7c-17.4,0-34.9,0-52.3,0
		c-1.8,0-2.6,0.5-3.1,2.3c-6.3,23.6-12.6,47.2-18.9,70.8c-0.8,3-0.2,3.8,2.8,3.8c17.7,0,35.3,0,53,0c0.7,0,1.4,0,2.1,0
		c1.2-4.6,2.4-9.1,3.6-13.5c0.8-3.1,0.3-3.8-2.8-3.8c-11,0-22.1,0-33.1,0c-0.8,0-1.7,0-2.8,0c1-3.8,1.9-7.1,2.7-10.5
		c0.4-1.8,1.1-2.5,3.2-2.5c9.9,0.1,19.8,0,29.7,0.1c1.7,0,2.5-0.5,2.9-2.2c0.8-3.5,1.9-7,2.9-10.5c1-3.7,0.4-4.5-3.5-4.5
		C1203.6,374.8,1193.8,374.8,1183.6,374.8z M1026.4,362.7c1.2-4.6,2.5-9.1,3.7-13.6c0.8-2.9,0.1-3.9-2.9-3.9c-17.4,0-34.9,0-52.3,0
		c-1.7,0-2.5,0.5-2.9,2.2c-6.3,23.6-12.6,47.2-18.9,70.8c-0.8,3.1-0.2,3.9,2.9,3.9c17.6,0,35.2,0,52.8,0c0.7,0,1.4,0,2.2,0
		c1.2-4.5,2.4-8.8,3.5-13.1c1-3.7,0.5-4.1-3.3-4.1c-10.8,0-21.6,0-32.4,0c-0.9,0-1.7,0-2.9,0c0.9-3.6,1.9-6.8,2.6-10.1
		c0.4-2.1,1.2-2.9,3.6-2.9c9.9,0.2,19.8,0,29.7,0.1c1.4,0,2.1-0.3,2.4-1.8c0.9-3.9,2.1-7.8,3.2-11.7c0.7-2.7-0.1-3.7-3-3.8
		c-9.2,0-18.4,0-27.6,0c-0.8,0-1.7,0-2.8,0c0.9-3.5,1.9-6.6,2.6-9.8c0.4-1.9,1.2-2.3,3-2.3C1001.7,362.8,1013.9,362.7,1026.4,362.7z
		 M1101.1,395.8c-4.8,4-9.5,8-14.3,12.1c3,4.7,7.1,7.9,11.7,10.4c8.7,4.7,18.1,5.6,27.6,4.6c8.7-0.9,16.4-4.4,21.6-11.9
		c6.2-8.8,7.1-23.7-6.2-31.1c-3.8-2.1-7.9-3.8-11.8-5.7c-2.1-1-4.2-1.9-6.1-3.1c-3.1-2-3.3-4.8-0.6-7.2c1-0.9,2.4-1.7,3.7-2
		c5.5-1.4,10.6-0.2,15.2,2.9c2.2,1.5,4.2,3.2,5.9,4.5c4.4-4.4,8.8-8.8,13.6-13.6c-3.3-2.3-6.5-5.2-10.2-7.2
		c-8.2-4.5-17.1-5.3-26.2-3.8c-8.2,1.3-15.3,4.9-20.1,12c-5.5,8-6.5,20.8,3.1,28.1c3.6,2.7,7.9,4.6,12,6.7c3.3,1.7,6.7,3.2,9.9,5.1
		c2.4,1.4,2.5,4.4,0.5,6.4c-1,1-2.4,1.9-3.8,2.3c-3.9,1.2-7.9,0.9-11.8-0.2C1109.2,403.6,1105,399.9,1101.1,395.8z M902.7,422.6
		c5.2,0,9.9-0.1,14.6,0c1.5,0,2.3-0.5,3.1-1.6c15.9-24,31.9-47.9,47.8-71.8c0.5-0.7,0.8-2,0.5-2.6c-0.4-0.7-1.6-1.2-2.5-1.2
		c-5.1-0.1-10.2,0-15.3-0.1c-1.4,0-2.3,0.4-3.1,1.7c-7.5,11.8-15,23.6-22.5,35.4c-2.3,3.6-4.6,7.2-7.3,11.4
		c-1.6-16.6-3.2-32.3-4.8-48.4c-6.2,0-12.2-0.1-18.3,0.1c-0.6,0-1.5,1.3-1.8,2.1c-0.3,0.8,0,1.9,0.2,2.8c0.6,4.3,1.2,8.6,1.8,13
		c0.9,6.9,1.8,13.8,2.7,20.8c1,8,2.1,16.1,3.1,24.1C901.4,412.9,902,417.7,902.7,422.6z M642.7,404.4c0.3-1.1,0.5-1.8,0.7-2.6
		c4.7-17.6,9.4-35.3,14.1-52.9c0.7-2.7-0.1-3.7-2.8-3.7c-4.5,0-9,0.1-13.4,0c-1.7,0-2.3,0.5-2.8,2.1c-6.4,23.8-12.8,47.7-19.2,71.5
		c-0.6,2.4,0.2,3.4,2.7,3.4c16.9,0,33.9,0,50.8,0c1.4,0,2.1-0.2,2.4-1.8c0.9-3.9,2.1-7.8,3.2-11.7c1-3.5,0.4-4.3-3.2-4.3
		C664.5,404.4,653.7,404.4,642.7,404.4z M700,422.1c0.1-0.3,0.1-0.6,0.2-0.9c2.7-10.2,5.5-20.4,8.3-30.7
		c3.8-13.9,7.5-27.7,11.3-41.6c0.7-2.6-0.1-3.7-2.8-3.7c-4.5,0-8.9,0.1-13.4,0c-1.8,0-2.5,0.5-2.9,2.3c-1.4,5.7-3,11.3-4.5,16.9
		c-4.9,18.1-9.8,36.2-14.6,54.2c-0.6,2.3,0.1,3.5,2.3,3.5C689.1,422.2,694.5,422.1,700,422.1z"/>
	<path class="st0" d="M123,290c81.4,0,162.8,0,244.2,0c0.7,0.2,1.3,0.4,2,0.5c19.4,2.9,29.3,19.7,22.5,38c-3.4,9.3-9.4,17-15.8,24.3
		c-13.3,15.1-28.9,27.8-45,39.8c-30.9,23.1-63.6,43.3-97.2,62.1c-11.5,6.5-23.3,12.6-35.2,18.3c-16.8,8.1-32.9,5.3-48.1-4.7
		c-9.7-6.4-17.7-14.6-24.6-23.9c-18.5-24.7-30.3-52.3-36.3-82.5c-2.8-14.2-3.2-28.5,0.4-42.7c3.5-13.6,11.2-23.7,25.4-27.6
		C117.9,291,120.4,290.6,123,290z M168,318.8c-5.6,0-10.9,0.1-16.2-0.1c-2-0.1-2.9,0.6-3.5,2.5c-5.5,17.2-11.1,34.3-16.7,51.4
		c-0.7,2.3-1.4,4.6-2.1,7.1c6.3,0,12.2,0,18.3,0c2.3-8.6,4.7-17.3,7-25.9c0.5,0.9,0.7,1.9,0.8,2.9c0.2,6.9,0.4,13.8,0.6,20.8
		c0,1.7,0.6,2.5,2.4,2.4c2.5-0.1,5-0.1,7.4,0c1.4,0.1,2-0.5,2.4-1.7c1.3-3.3,2.7-6.6,4.1-9.8c2.1-4.9,4.2-9.8,6.3-14.7
		c0.1,0,0.3,0.1,0.4,0.1c-1,8.6-2,17.2-3,26.1c5.6,0,10.9-0.1,16.3,0c1.7,0,2.3-0.7,2.4-2.2c0.2-3,0.4-6,0.6-9
		c0.5-9.4,1-18.9,1.5-28.3c0.2-3.5,0.6-7,0.8-10.4c0.2-3.6,0.4-7.3,0.6-11.2c-6.1,0-12,0-17.9,0.1c-0.5,0-1.3,1-1.6,1.7
		c-3.2,8.1-6.2,16.2-9.4,24.3c-0.3,0.8-0.7,1.5-1,2.2c-0.1,0-0.3-0.1-0.4-0.1C168,337.7,168,328.4,168,318.8z M256.6,342.4
		c-0.2-2-0.4-3.9-0.7-5.9c-2.4-14.2-14.8-21.6-28.6-17.5c-16.2,4.8-28.2,24.1-26.2,40.7c1.7,15,14.8,24.8,30.5,19.1
		C245.5,373.7,256.7,357.6,256.6,342.4z M194.8,460.7c-4-1.4-8.4-2.7-12.5-4.5c-11.8-5-22.1-12.4-32-20.4
		c-11.1-8.9-20.8-19-29.2-30.4c-14-19.2-22.7-40.6-25.1-64.4c-0.9-8.6-0.2-16.9,2.3-25.1c1.8-5.9,4.9-11,9.4-15.4
		c-2.6,2-5.2,4.1-7.2,6.7c-6.2,8.2-7.6,17.9-8.2,27.8c-0.6,8.9,0.5,17.6,2.5,26.2c7.1,29.9,19.6,57,40.4,80.1
		c7.3,8.1,15.6,14.9,25.7,19.4C172.3,465.8,183.7,466.2,194.8,460.7z M285.2,318.8c-5.1,0-10,0-14.8,0c-4.3,0-4.1,0-4.9,4.2
		c-2.1,11.2-4.3,22.4-6.4,33.6c-1.5,7.6-2.9,15.3-4.5,23.2c6.8,0,13.3,0,19.9,0c0.6,0,1.3-0.6,1.7-1.1c3.5-4.5,7-9.1,10.4-13.6
		c1-1.3,2-2.7,3.3-4.4c-4.6,0-8.6,0-12.8,0C279.8,346.7,282.5,332.9,285.2,318.8z"/>
	<path class="st0" d="M471.9,376.9c-2.4-0.1-4.5-0.3-6.7-0.4c-7-0.1-11.6,6.6-9,13.1c0.5,1.3,0.3,2.2-0.2,3.5
		c-1.8,3.8-3.3,7.7-5.1,11.8c-0.2-0.1-0.8-0.4-1.2-0.8c-7-6.2-9.8-14-7.8-23c2-9.4,8-15.4,17.3-18c1.5-0.4,2.2-1.1,2.8-2.5
		c9.2-22.9,32-36.8,56.6-34.6c24,2.2,44.1,20,49.1,43.7c1.7,8.2,1.6,16.4-0.5,24.7c-1.9-2.5-3.6-4.9-5.6-7c-2-2.1-5.1-3.6-6.4-6
		c-1.3-2.4-0.8-5.7-1.4-8.6c-4-18.9-20.6-32.7-39.5-32.9c-19.7-0.2-36.3,12.6-41,31.7C472.8,373.3,472.4,375,471.9,376.9z"/>
	<path class="st0" d="M560.7,409c0,12.5-10.2,22.7-22.7,22.6c-12.4-0.1-22.6-10.2-22.6-22.5c0-12.7,10.1-22.8,22.8-22.8
		C550.8,386.3,560.7,396.3,560.7,409z M538.2,398.2c-5.9,0-10.8,4.6-10.9,10.4c-0.1,6,4.7,10.9,10.6,11c5.9,0.1,10.7-4.7,10.8-10.5
		C548.9,403,544.3,398.3,538.2,398.2z"/>
	<path class="st0" d="M505.4,409.1c0,12.4-10.1,22.5-22.6,22.5c-12.5,0-22.7-10.1-22.7-22.6c-0.1-12.6,10.1-22.7,22.9-22.7
		C495.5,386.3,505.4,396.4,505.4,409.1z M482.8,398.2c-6,0-10.7,4.6-10.7,10.5c-0.1,5.9,4.8,10.9,10.8,10.9
		c5.9,0,10.7-4.8,10.7-10.6C493.5,402.8,488.9,398.2,482.8,398.2z"/>
	<path class="st0" d="M504.4,367.3c-0.1,5.3-4.7,9.8-9.9,9.7c-5.3-0.1-9.7-4.6-9.6-9.9c0.1-5.2,4.5-9.5,9.7-9.5
		C499.9,357.5,504.4,362.1,504.4,367.3z"/>
	<path class="st0" d="M1047.7,381c1.5-5.6,2.9-10.8,4.2-16.1c0.4-1.5,1-2.3,2.7-2.2c4.8,0.3,9.6,0.3,14.3,0.5c4,0.2,6.7,2.3,7.4,5.3
		c0.9,3.7-0.5,7.3-3.9,9.5c-3.4,2.2-7.1,3.1-11.1,3C1056.9,381,1052.4,381,1047.7,381z"/>
	<path class="st0" d="M842.2,405.6c-13.5-0.2-20.4-8.7-18.2-21c1.9-10.8,7.6-18.8,18.5-21.9c6.8-2,13.6-1.1,18.7,4.5
		c4.4,4.9,4.9,10.9,3.6,17c-2,9.3-7.2,16.3-16.2,20C846.2,405.1,843.5,405.3,842.2,405.6z"/>
	<path class="st0" d="M218.9,351.8c0.1-6.8,4.3-12.8,10.4-14.5c3.2-0.9,6.2,0.3,8,3c2.7,4.2,2,10.8-1.5,15.5c-2,2.7-4.5,4.7-7.8,5.4
		C222.8,362.3,218.8,358.1,218.9,351.8z"/>
</g>
</svg>
