<svg xmlns="http://www.w3.org/2000/svg" viewBox="0 0 604.21 604.21"><defs><style>.cls-1{fill:#fff;}.cls-2{fill:#004c44;}</style></defs><g id="Layer_2" data-name="Layer 2"><g id="Layer_1-2" data-name="Layer 1"><rect class="cls-1" width="604.21" height="604.21" rx="109.45"/><path class="cls-2" d="M56.78,312a7,7,0,0,0-7,7.18,7.28,7.28,0,0,0,7.11,7.45A7.32,7.32,0,0,0,56.78,312Zm36.49,0a7.32,7.32,0,1,0,6.92,7.45A7,7,0,0,0,93.27,312Zm0,0a7.32,7.32,0,1,0,6.92,7.45A7,7,0,0,0,93.27,312Zm-36.49,0a7,7,0,0,0-7,7.18,7.28,7.28,0,0,0,7.11,7.45A7.32,7.32,0,0,0,56.78,312Zm70-12.37c-1.12-25.85-23.45-53.54-56.19-51.21C48.89,250,22.74,269.9,22.74,302.62c0,1.6.06,3.24.19,4.9C24.77,331.45,46.51,357,74.7,355.85,102.43,357.08,128.18,331,126.8,299.66Zm-70,35.2a15.49,15.49,0,0,1,.14-31c8.23,0,14.75,6.91,14.75,15.59A15.14,15.14,0,0,1,56.78,334.86Zm1.39-44.09A6.42,6.42,0,1,1,71,290.9a6.73,6.73,0,0,1-6.52,6.64A6.63,6.63,0,0,1,58.17,290.77Zm35,44.09a15.27,15.27,0,0,1-14.89-15.38c0-8.68,6.66-15.59,15-15.59s14.82,6.84,14.82,15.52S101.37,334.93,93.14,334.86Zm19.23-25.43a53.68,53.68,0,0,0-3.69-4.78c-1.31-1.44-3.36-2.46-4.21-4.11s-.53-3.89-.92-5.88c-2.64-12.92-13.57-22.35-26-22.49-13-.13-23.91,8.62-27,21.67-.33,1.17-.6,2.33-.93,3.63-1.58-.07-3-.21-4.41-.28a6.42,6.42,0,0,0-5.93,9,3,3,0,0,1-.13,2.39c-1.18,2.6-2.17,5.27-3.36,8.07a3.25,3.25,0,0,1-.79-.55,15.8,15.8,0,0,1-5.13-15.72A15.26,15.26,0,0,1,41.24,288a2.47,2.47,0,0,0,1.84-1.71c6.06-15.65,21.08-25.16,37.28-23.65,15.81,1.5,29.05,13.67,32.34,29.88A38.5,38.5,0,0,1,112.37,309.43ZM93.27,312a7.32,7.32,0,1,0,6.92,7.45A7,7,0,0,0,93.27,312Zm-36.49,0a7,7,0,0,0-7,7.18,7.28,7.28,0,0,0,7.11,7.45A7.32,7.32,0,0,0,56.78,312Zm0,0a7,7,0,0,0-7,7.18,7.28,7.28,0,0,0,7.11,7.45A7.32,7.32,0,0,0,56.78,312Zm0,0a7,7,0,0,0-7,7.18,7.28,7.28,0,0,0,7.11,7.45A7.32,7.32,0,0,0,56.78,312Z"/><path class="cls-2" d="M237.35,253.32a4.15,4.15,0,0,1-.66,3.42c-20.94,31.48-42,63-63,94.58a4.44,4.44,0,0,1-4.08,2.11c-6.2-.13-12.39,0-19.24,0-.92-6.46-1.71-12.78-2.37-18.84-1.31-10.54-2.76-21.21-4.08-31.75-1.19-9.22-2.37-18.3-3.56-27.39-.79-5.8-1.58-11.46-2.37-17.13-.26-1.18-.66-2.63-.26-3.69s1.58-2.76,2.37-2.76c8-.27,15.94-.13,24.1-.13,2.11,21.2,4.22,41.88,6.33,63.75,3.55-5.53,6.58-10.27,9.61-15l29.64-46.63a4.2,4.2,0,0,1,4.08-2.24c6.72.14,13.44,0,20.16.14A4.17,4.17,0,0,1,237.35,253.32Z"/><path class="cls-2" d="M318.23,256.61c-1.58,5.93-3.29,11.85-4.87,17.91-16.47,0-32.54.14-48.48-.13-2.37,0-3.42.53-3.95,3-.92,4.22-2.24,8.3-3.42,12.91h40c3.82.13,4.87,1.45,3.95,5-1.45,5.13-3,10.27-4.21,15.41-.4,2-1.32,2.37-3.17,2.37-13-.13-26.08.13-39.12-.13-3.16,0-4.21,1.05-4.74,3.82-.92,4.34-2.24,8.56-3.42,13.3h46.49c5,0,5.67.53,4.35,5.4-1.45,5.67-3,11.33-4.61,17.26H220.62c-4.08,0-4.87-1.06-3.82-5.14l24.9-93.26c.53-2.24,1.58-2.9,3.82-2.9h68.89C318.36,251.47,319.28,252.79,318.23,256.61Z"/><path class="cls-2" d="M404.51,272.81c-3.69-13.17-16.2-20-31-20.81-12.38-.66-24.76-.4-37.27-.4-7.77,0-7.77,0-9.75,7.25-8,29.77-16.07,59.67-24.24,89.44-.79,2.9.4,4.35,3.43,4.35h18.57c1.84,0,2.63-.53,3-2.24.92-4.09,2.11-8,3.16-12.12,1.45-5.53,3-11.2,4.61-16.6,4,0,7.38.13,10.8,0,1.85-.13,2.77.66,3.56,2.37,4.08,8.83,8.43,17.52,12.64,26.22.8,1.71,1.72,2.5,3.69,2.5,7-.13,13.83,0,20.82,0,3.55,0,4.61-1.71,3-5-4.62-9.48-9.49-19.1-14.1-28.45,3.56-1.45,7.11-2.63,10.54-4.35C402.93,306.8,409.25,290.07,404.51,272.81ZM374,294.68a25,25,0,0,1-14.62,3.95H341.41c2-7.38,3.82-14.23,5.54-21.21.52-2,1.31-3,3.55-2.9,6.33.4,12.65.4,18.84.66,5.27.27,8.83,3,9.75,7A11.32,11.32,0,0,1,374,294.68Z"/><path class="cls-2" d="M450.35,327.61c2.63-2.64,2.5-6.59-.66-8.43-4.21-2.5-8.69-4.48-13-6.72-5.4-2.77-11.06-5.27-15.81-8.82-12.64-9.62-11.32-26.48-4.08-37,6.32-9.35,15.68-14.09,26.48-15.81,12-2,23.71-.92,34.51,5,4.87,2.63,9.09,6.45,13.43,9.48l-17.91,17.92c-2.24-1.71-4.87-4-7.77-5.93-6.06-4.08-12.78-5.66-20-3.82a11.85,11.85,0,0,0-4.88,2.63c-3.55,3.17-3.29,6.85.79,9.49a75.66,75.66,0,0,0,8,4.08c5.14,2.51,10.54,4.74,15.54,7.51,17.52,9.75,16.34,29.38,8.17,41-6.85,9.88-17,14.49-28.45,15.67-12.52,1.32-24.9.13-36.36-6.06-6.06-3.29-11.46-7.51-15.41-13.7,6.32-5.4,12.51-10.67,18.83-15.94,5.14,5.41,10.67,10.28,18.05,12.26a27.23,27.23,0,0,0,15.54.26A12.2,12.2,0,0,0,450.35,327.61Z"/><path class="cls-2" d="M523.33,279.13c-1.06,3.56-1.85,7.25-2.9,11.33,13.43,0,26.34,0,39-.13,5.14,0,5.93,1.05,4.61,5.93-1.32,4.61-2.77,9.22-3.82,13.83-.53,2.24-1.58,2.9-3.82,2.9-13-.13-26.08,0-39.12-.13-2.77,0-3.69.92-4.22,3.29-1,4.48-2.24,8.82-3.56,13.83h47.29c4.09,0,4.75.92,3.69,5q-2.37,8.68-4.74,17.78H483.15c-3.95,0-4.74-1.06-3.69-5l24.9-93.26c.66-2.37,1.71-3,4.08-3h68.89c3.69,0,4.74,1.45,3.82,4.88-1.58,6.06-3.29,12.11-5,18.17h-46.9C523.46,274.66,525,273.6,523.33,279.13Z"/></g></g></svg>